# xmcd CD database file
#
# Track frame offsets:
#	150
#	19187
#	42262
#	67307
#	95232
#	121775
#	139050
#	156012
#	185937
#	212050
#	232262
#
# Disc length: 3475 seconds
#
# Revision: 2
# Processed by: cddbd v1.5PL3 Copyright (c) Steve Scherf et al.
# Submitted via: CDex 1.51
#
DISCID=a90d910b
DTITLE=Tam White`s Shoestring - The Real Deal
DYEAR=1997
DGENRE=Blues
TTITLE0=Pollution Blues
TTITLE1=Blue, Blue Feeling
TTITLE2=Born under a Bad Sign
TTITLE3=This is the Way We Make a Broken Heart
TTITLE4=Save Me
TTITLE5=Eyesight to the Blind
TTITLE6=Workin' Class White Boy
TTITLE7=Home is Where the Hatred is
TTITLE8=Stonemason's Blues
TTITLE9=Man Dancin'
TTITLE10=A Long Time Comin'
EXTD=YEAR: 1997
EXTT0=
EXTT1=
EXTT2=
EXTT3=
EXTT4=
EXTT5=
EXTT6=
EXTT7=
EXTT8=
EXTT9=
EXTT10=
PLAYORDER=
